<svg xmlns="http://www.w3.org/2000/svg" fill-rule="evenodd" clip-rule="evenodd" viewBox="0 0 96 96">
  <path d="M65 82.88H29.9v-4.66H65v4.66zm31-7.7H0V13.12h96v62.06zm-2.72-59.35H2.7v56.63H93.3l-.01-56.63zM59.7 64.12H36.29a3.92 3.92 0 0 1-3.9-3.9V40.7c0-2.15 1.75-3.9 3.89-3.9l.01-2.11c.1-5.92 5.06-11.38 11.4-11.56h.39c6 .06 11.57 5.18 11.63 11.64v2.02c2.15 0 3.9 1.76 3.9 3.9v19.52c0 2.15-1.75 3.9-3.9 3.9zm-7.8-13.66a3.91 3.91 0 0 1-7.8 0c-.01-2.15 1.74-3.9 3.89-3.9 2.15 0 3.9 1.75 3.9 3.9zm3.9-13.67v-2.05a8.04 8.04 0 0 0-7.7-7.7 7.97 7.97 0 0 0-7.92 7.8v1.95h15.63z"/>
</svg>