<svg xmlns="http://www.w3.org/2000/svg" fill-rule="evenodd" viewBox="0 0 96 96">
  <g transform="matrix(.97088 0 0 1 -123.8 0)">
    <path fill="none" d="M127.52 0h98.88v96h-98.88z"/>
    <clipPath id="a">
      <path d="M127.52 0h98.88v96h-98.88z"/>
    </clipPath>
    <g clip-path="url(#a)">
      <path d="M194.47 82.88h-36.16v-4.66h36.16v4.66zm31.93-7.7h-98.88V13.12h98.88v62.06zm-2.8-59.35H130.3v56.63h93.3c0-.03 0-56.41-.02-56.63zm-54.44 19.34l-2.84-2.29-9.97 11.67 9.97 11.67 2.84-2.3-8.02-9.37 8.02-9.38zm18.43-2.29l-2.84 2.3 8.02 9.37-8.02 9.37 2.84 2.3 9.97-11.67-9.97-11.67zm-16.16 9.88v3.58h-3.69v-3.58h3.69zm14.74 0v3.58h-3.68v-3.58h3.68zm-7.37 0v3.58h-3.69v-3.58h3.69z"/>
    </g>
  </g>
</svg>