<svg xmlns="http://www.w3.org/2000/svg" viewBox="0 0 96 96">
  <g transform="matrix(.94625 0 0 1.08244 0 -124.88)">
    <path fill="none" d="M0 115.36h101.45v88.69H0z"/>
    <clipPath id="a">
      <path d="M0 115.36h101.45v88.69H0z"/>
    </clipPath>
    <g clip-path="url(#a)">
      <path fill-rule="nonzero" d="M55.1 183.14c-3.6 0-6.52 2.55-6.52 5.7 0 3.14 2.92 5.68 6.51 5.68 3.6 0 6.51-2.54 6.51-5.69 0-3.14-2.91-5.69-6.5-5.69zm24.55 11.15h-1.72v-1.2a7.02 7.02 0 0 1-4.32 1.43c-3.6 0-6.5-2.54-6.5-5.69 0-3.14 2.9-5.69 6.5-5.69 1.66 0 3.17.55 4.32 1.44v-3.97h1.72v13.68zm-38.7 0h-1.72v-1.24a7 7 0 0 1-4.36 1.47c-3.6 0-6.51-2.54-6.51-5.69 0-3.14 2.92-5.69 6.51-5.69a7 7 0 0 1 4.36 1.47v-4h1.71v13.68zm-28.17 0h-1.72v-1.4a6.97 6.97 0 0 1-4.55 1.63c-3.6 0-6.51-2.54-6.51-5.69 0-3.14 2.91-5.69 6.51-5.69 1.78 0 3.38.63 4.55 1.64v-1.44h1.72v10.95zm30.33-6.62c.29-2.48 2.63-4.42 5.52-4.52v1.5c-2.1.11-3.79 1.62-3.82 3.48h-.02v6.16h-1.7v-6.62h.02zm-28.18.1c.24-2.6 2.72-4.63 5.75-4.63s5.5 2.04 5.75 4.63h.02v6.52h-1.7v-6.16h-.02c-.04-1.93-1.84-3.48-4.05-3.48-2.22 0-4.01 1.55-4.05 3.48h-.01v6.16H14.9v-6.52h.03zm50.32 6.52h-1.72v-10.95h1.72v10.95zM84 180.6v2.73H88v.87H84v6.16a3 3 0 0 0 1.77 2.64c.46.23.99.37 1.55.4H88v.88h-.54c-2.26-.02-4.12-1.5-4.41-3.4l-.03-.31v-9.96h1zm11.35 13.68h-.53l-5.72-10.95h1l4.98 9.54 5-9.54h.99l-5.72 10.95zm-35.55-5.46c0 2.28-2.11 4.12-4.72 4.12-2.6 0-4.71-1.84-4.71-4.12 0-2.27 2.11-4.12 4.71-4.12s4.72 1.85 4.72 4.12zm18.12 2.05v-4.1a5.06 5.06 0 0 0-4.2-2.07c-2.7 0-4.87 1.85-4.87 4.12 0 2.28 2.18 4.12 4.86 4.12 1.8 0 3.37-.83 4.21-2.07zm-38.7-.06v-3.98a5.05 5.05 0 0 0-4.25-2.13c-2.68 0-4.86 1.85-4.86 4.12 0 2.28 2.18 4.12 4.86 4.12 1.83 0 3.42-.86 4.25-2.13zm-28.17-.27v-3.44a4.97 4.97 0 0 0-4.4-2.4c-2.69 0-4.86 1.85-4.86 4.12 0 2.28 2.17 4.12 4.86 4.12 1.95 0 3.64-.98 4.4-2.4zm54.19-9.94v1.62h-1.72v-1.62h1.72zm35.83-12.08H0v-25.74h101.08v25.74zm-44.92-19.22h-2.44l6.47 12.7h2.56l6.47-12.7h-2.44l-5.25 10.67-5.37-10.67zm19.03 0H73v12.7h2.2v-12.7zm12.33 0h-2.56l-6.71 12.7h2.56l1.58-3.31h7.81l1.47 3.3h2.44l-6.59-12.69zm-40.27 0h-2.68l-6.59 12.7h2.44l1.59-3.31h7.8l1.6 3.3h2.31l-6.47-12.69zm-17.81 0h-5.49v12.7h2.2v-11.2h3.29c1.7 0 3.17.53 3.17 2.13 0 1.81-1.34 2.45-3.17 2.45h-1.59l5.25 6.62h3.05l-4.4-5.44c2.2-.54 3.3-1.6 3.3-3.63 0-2.77-2.8-3.63-5.61-3.63zm-16.1 0H7.71v12.7h5.86c1.83 0 3.17-.32 4.15-.96 1.1-.64 1.58-1.5 1.58-2.67 0-.85-.36-1.5-.97-2.13a5.38 5.38 0 0 0-2.57-1.07c.98-.1 1.6-.43 2.08-.85.49-.43.73-1.07.73-1.82a2.6 2.6 0 0 0-1.34-2.34 7.91 7.91 0 0 0-3.9-.86zm.12 11.2H9.92v-4.58h3.54c1.22 0 2.07.21 2.56.53.6.43.85.96.85 1.81 0 .75-.24 1.4-.85 1.71-.49.43-1.34.53-2.56.53zm76.01-3.2H83l3.18-6.29 3.3 6.3zm-43.56-6.29l-3.17 6.3h6.35l-3.18-6.3zm-32.7 3.52h-3.3v-3.73h3.3c.98 0 1.83.1 2.32.42.61.32.85.75.85 1.4 0 .63-.24 1.16-.85 1.48-.49.33-1.34.43-2.32.43zM3.14 139.85H.44v-5.35h2.44c.54 1.36 1.28 1.64 1.96 2.18 1.18.95 4 1.64 6.57 1.62 3.9-.04 5.23-.78 5.23-1.86s-1.32-1.34-5.59-1.92L7.44 134c-4.09-.54-7.06-1.34-7.06-4.18 0-2.96 3.76-4.82 9.7-4.82 2.51 0 4.61.3 6.62 1.3.56.3 1.09.35 1.08-.84h2.63v5.18h-2.43c-.22-1.04-.96-1.44-1.63-1.99-1.22-.98-3.86-1.8-6.08-1.8-2.87 0-5.29.79-5.29 1.93 0 3.17 16.4.65 16.4 6.65 0 3.13-3.52 4.87-9.82 4.87-2.19 0-5.5-.59-7.44-1.5-.61-.3-.87.3-.98 1.05zm33.78-14.96c-7.66 0-12.45 2.96-12.45 7.7 0 4.67 4.73 7.6 12.21 7.6 7.95 0 12.58-2.89 12.58-7.83 0-4.44-5-7.47-12.34-7.47zm63 12.45c-.86 0-1.55.6-1.55 1.34 0 .75.7 1.35 1.55 1.35.85 0 1.53-.6 1.53-1.35 0-.74-.68-1.34-1.53-1.34zm-39.95 2.62H50v-1.77h1.66c1.28 0 1.73-.28 1.73-1.01v-8.8c0-.76-.45-1.02-1.73-1.02H50v-1.8h8.62l10.45 8.57.05-5.76c0-.75-.44-1.01-1.73-1.01h-1.5v-1.8h9.6v1.8h-1.26c-1.28 0-1.73.26-1.73 1.01v11.59l-3.76-.03-12.17-10.07v7.32c0 .73.45 1.01 1.73 1.01h1.67v1.77zm39.95-.1c-.75 0-1.36-.52-1.36-1.18 0-.65.6-1.18 1.36-1.18.74 0 1.35.53 1.35 1.18 0 .66-.6 1.19-1.35 1.19zm-11.68-12.55h-.78c-.79 0-1.12.13-1.12.4 0 .2.24.38.4.55l2.96 2.83c.35.32.78.36 1.19-.04l3.15-2.94c.18-.21.27-.37.27-.5 0-.21-.21-.3-.88-.3h-.8v-1.85h8.6v1.85h-1.12c-1.31 0-1.55.18-3.37 2.18l-4.99 4.7v2.88c0 .73.43.99 1.64.99h1.88v1.8H83.23v-1.8h1.88c1.21 0 1.64-.26 1.64-1v-2.86l-5.87-5.68c-.97-1-.84-1.2-3.54-1.2v-1.86h10.9v1.85zm11.31 12.13h-.2v-1.51h.74c.15 0 .3 0 .42.07.13.07.2.2.2.33 0 .3-.24.4-.55.41l.52.7h-.25l-.49-.7h-.39v.7zm.5-1.38h-.5v.54h.33c.24 0 .61.03.61-.27 0-.24-.23-.27-.44-.27zm-63.3.26c-4.24 0-6.68-2.14-6.68-5.83 0-3.6 2.54-5.74 6.88-5.74 4.17 0 6.6 2.18 6.6 5.9 0 3.62-2.47 5.67-6.8 5.67z"/>
    </g>
  </g>
</svg>